<svg width="20" height="16" viewBox="0 0 20 16" fill="none" xmlns="http://www.w3.org/2000/svg">
<path d="M18.75 15.5C18.75 15.5 20 15.5 20 14.25C20 13 18.75 9.25 13.75 9.25C8.75 9.25 7.5 13 7.5 14.25C7.5 15.5 8.75 15.5 8.75 15.5H18.75ZM8.7775 14.25C8.76827 14.2487 8.75909 14.2471 8.75 14.245C8.75125 13.915 8.95875 12.9575 9.7 12.095C10.39 11.2863 11.6025 10.5 13.75 10.5C15.8962 10.5 17.1087 11.2875 17.8 12.095C18.5413 12.9575 18.7475 13.9163 18.75 14.245L18.74 14.2475C18.7342 14.2485 18.7284 14.2493 18.7225 14.25H8.7775ZM13.75 6.75C14.413 6.75 15.0489 6.48661 15.5178 6.01777C15.9866 5.54893 16.25 4.91304 16.25 4.25C16.25 3.58696 15.9866 2.95107 15.5178 2.48223C15.0489 2.01339 14.413 1.75 13.75 1.75C13.087 1.75 12.4511 2.01339 11.9822 2.48223C11.5134 2.95107 11.25 3.58696 11.25 4.25C11.25 4.91304 11.5134 5.54893 11.9822 6.01777C12.4511 6.48661 13.087 6.75 13.75 6.75ZM17.5 4.25C17.5 4.74246 17.403 5.23009 17.2145 5.68506C17.0261 6.14003 16.7499 6.55343 16.4017 6.90165C16.0534 7.24987 15.64 7.52609 15.1851 7.71455C14.7301 7.903 14.2425 8 13.75 8C13.2575 8 12.7699 7.903 12.3149 7.71455C11.86 7.52609 11.4466 7.24987 11.0983 6.90165C10.7501 6.55343 10.4739 6.14003 10.2855 5.68506C10.097 5.23009 10 4.74246 10 4.25C10 3.25544 10.3951 2.30161 11.0983 1.59835C11.8016 0.895088 12.7554 0.5 13.75 0.5C14.7446 0.5 15.6984 0.895088 16.4017 1.59835C17.1049 2.30161 17.5 3.25544 17.5 4.25ZM8.67 9.6C8.16998 9.44255 7.65454 9.33904 7.1325 9.29125C6.83916 9.26336 6.54466 9.24959 6.25 9.25C1.25 9.25 0 13 0 14.25C0 15.0837 0.41625 15.5 1.25 15.5H6.52C6.33469 15.1098 6.24228 14.6819 6.25 14.25C6.25 12.9875 6.72125 11.6975 7.6125 10.62C7.91625 10.2525 8.27 9.90875 8.67 9.6ZM6.15 10.5C5.41019 11.6116 5.01055 12.9148 5 14.25H1.25C1.25 13.925 1.455 12.9625 2.2 12.095C2.88125 11.3 4.065 10.525 6.15 10.5013V10.5ZM1.875 4.875C1.875 3.88044 2.27009 2.92661 2.97335 2.22335C3.67661 1.52009 4.63044 1.125 5.625 1.125C6.61956 1.125 7.57339 1.52009 8.27665 2.22335C8.97991 2.92661 9.375 3.88044 9.375 4.875C9.375 5.86956 8.97991 6.82339 8.27665 7.52665C7.57339 8.22991 6.61956 8.625 5.625 8.625C4.63044 8.625 3.67661 8.22991 2.97335 7.52665C2.27009 6.82339 1.875 5.86956 1.875 4.875ZM5.625 2.375C4.96196 2.375 4.32607 2.63839 3.85723 3.10723C3.38839 3.57607 3.125 4.21196 3.125 4.875C3.125 5.53804 3.38839 6.17393 3.85723 6.64277C4.32607 7.11161 4.96196 7.375 5.625 7.375C6.28804 7.375 6.92393 7.11161 7.39277 6.64277C7.86161 6.17393 8.125 5.53804 8.125 4.875C8.125 4.21196 7.86161 3.57607 7.39277 3.10723C6.92393 2.63839 6.28804 2.375 5.625 2.375Z" fill="#007CC7"/>
</svg>
