<svg width="20" height="20" viewBox="0 0 20 20" fill="none" xmlns="http://www.w3.org/2000/svg">
<path d="M10 17.5C14.1421 17.5 17.5 14.1421 17.5 10C17.5 5.85786 14.1421 2.5 10 2.5C5.85786 2.5 2.5 5.85786 2.5 10C2.5 14.1421 5.85786 17.5 10 17.5Z" stroke="#007CC7" stroke-width="2" stroke-linecap="round" stroke-linejoin="round"/>
<path d="M10.0002 11.6667C10.9206 11.6667 11.6668 10.9205 11.6668 10C11.6668 9.07957 10.9206 8.33337 10.0002 8.33337C9.07969 8.33337 8.3335 9.07957 8.3335 10C8.3335 10.9205 9.07969 11.6667 10.0002 11.6667Z" stroke="#007CC7" stroke-width="2" stroke-linecap="round" stroke-linejoin="round"/>
<path d="M10 11.6666V17.5" stroke="#007CC7" stroke-width="2" stroke-linecap="round" stroke-linejoin="round"/>
<path d="M8.3335 10L2.7085 8.33337" stroke="#007CC7" stroke-width="2" stroke-linecap="round" stroke-linejoin="round"/>
<path d="M11.6665 10L17.2915 8.33337" stroke="#007CC7" stroke-width="2" stroke-linecap="round" stroke-linejoin="round"/>
</svg>
