<svg width="20" height="20" viewBox="0 0 20 20" fill="none" xmlns="http://www.w3.org/2000/svg">
<path d="M18.1943 2.48096H15.2413C15.1822 2.48096 15.1254 2.50445 15.0836 2.54627C15.0418 2.58809 15.0183 2.64481 15.0183 2.70396C15.0183 2.74196 15.0303 2.77596 15.0468 2.80696V4.50596C15.0469 4.56822 15.0347 4.62989 15.0109 4.68743C14.9871 4.74497 14.9522 4.79724 14.9081 4.84127C14.8641 4.8853 14.8118 4.92021 14.7543 4.94401C14.6967 4.96781 14.6351 4.98002 14.5728 4.97996H13.6538C13.596 4.97996 13.5388 4.96858 13.4854 4.94646C13.432 4.92435 13.3835 4.89194 13.3427 4.85108C13.3018 4.81023 13.2694 4.76172 13.2473 4.70834C13.2252 4.65495 13.2138 4.59774 13.2138 4.53996V2.83446C13.2433 2.79725 13.2598 2.75142 13.2608 2.70396C13.2609 2.67465 13.2552 2.64563 13.244 2.61854C13.2328 2.59146 13.2164 2.56685 13.1956 2.54613C13.1749 2.52541 13.1503 2.50898 13.1232 2.4978C13.0961 2.48661 13.0671 2.48089 13.0378 2.48096H7.08531C7.02617 2.48096 6.96944 2.50445 6.92762 2.54627C6.8858 2.58809 6.86231 2.64481 6.86231 2.70396C6.86231 2.73846 6.87181 2.76996 6.88581 2.79946V4.51796C6.88581 4.57869 6.87385 4.63884 6.8506 4.69495C6.82736 4.75106 6.79329 4.80205 6.75035 4.84499C6.7074 4.88794 6.65641 4.92201 6.6003 4.94525C6.54419 4.96849 6.48404 4.98046 6.42331 4.98046H5.60731C5.48345 4.98046 5.36467 4.93126 5.27709 4.84368C5.18951 4.7561 5.14031 4.63731 5.14031 4.51346V2.81196C5.16016 2.77937 5.17103 2.74211 5.17181 2.70396C5.17187 2.67465 5.16615 2.64563 5.15497 2.61854C5.14378 2.59146 5.12736 2.56685 5.10664 2.54613C5.08592 2.52541 5.06131 2.50898 5.03422 2.4978C5.00714 2.48661 4.97811 2.48089 4.94881 2.48096H1.83731C1.70589 2.48109 1.57988 2.53332 1.48691 2.6262C1.39393 2.71908 1.34157 2.84504 1.34131 2.97646V17.7435C1.34131 18.0175 1.56381 18.24 1.83731 18.24H18.1943C18.3258 18.2397 18.4518 18.1873 18.5447 18.0942C18.6376 18.0011 18.6898 17.875 18.6898 17.7435V2.97646C18.6895 2.84512 18.6373 2.71925 18.5444 2.62638C18.4515 2.53351 18.3256 2.48122 18.1943 2.48096ZM18.1943 17.794H1.83731C1.8307 17.794 1.82416 17.7926 1.81806 17.7901C1.81196 17.7876 1.80642 17.7838 1.80178 17.7791C1.79713 17.7744 1.79345 17.7689 1.79097 17.7627C1.78849 17.7566 1.78724 17.7501 1.78731 17.7435V6.60696H18.2438V17.743C18.2439 17.7496 18.2428 17.7561 18.2403 17.7623C18.2379 17.7684 18.2343 17.774 18.2297 17.7788C18.2251 17.7835 18.2196 17.7873 18.2135 17.7899C18.2074 17.7925 18.2009 17.7939 18.1943 17.794Z" fill="#007CC7"/>
<path d="M6.0731 4.47198C6.1961 4.47198 6.2961 4.37198 6.2961 4.24898V1.24998C6.2961 1.22069 6.29033 1.19169 6.27912 1.16464C6.26792 1.13758 6.25149 1.113 6.23078 1.09229C6.21008 1.07159 6.18549 1.05516 6.15844 1.04395C6.13138 1.03275 6.10238 1.02698 6.0731 1.02698C6.04381 1.02698 6.01481 1.03275 5.98776 1.04395C5.9607 1.05516 5.93612 1.07159 5.91541 1.09229C5.89471 1.113 5.87828 1.13758 5.86707 1.16464C5.85587 1.19169 5.8501 1.22069 5.8501 1.24998V4.24948C5.8501 4.37248 5.9501 4.47198 6.0731 4.47198Z" fill="#007CC7"/>
<path d="M14.1502 4.47198C14.2732 4.47198 14.3732 4.37198 14.3732 4.24898V1.24998C14.3732 1.19083 14.3498 1.13411 14.3079 1.09229C14.2661 1.05047 14.2094 1.02698 14.1502 1.02698C14.0911 1.02698 14.0344 1.05047 13.9926 1.09229C13.9507 1.13411 13.9272 1.19083 13.9272 1.24998V4.24948C13.9272 4.37248 14.0267 4.47198 14.1502 4.47198Z" fill="#007CC7"/>
<path d="M4.92089 9.98046C5.59965 9.98046 6.14989 9.43022 6.14989 8.75146C6.14989 8.0727 5.59965 7.52246 4.92089 7.52246C4.24214 7.52246 3.69189 8.0727 3.69189 8.75146C3.69189 9.43022 4.24214 9.98046 4.92089 9.98046Z" fill="#007CC7"/>
<path d="M8.45263 9.98046C9.13139 9.98046 9.68163 9.43022 9.68163 8.75146C9.68163 8.0727 9.13139 7.52246 8.45263 7.52246C7.77387 7.52246 7.22363 8.0727 7.22363 8.75146C7.22363 9.43022 7.77387 9.98046 8.45263 9.98046Z" fill="#007CC7"/>
<path d="M11.9844 9.98046C12.6631 9.98046 13.2134 9.43022 13.2134 8.75146C13.2134 8.0727 12.6631 7.52246 11.9844 7.52246C11.3056 7.52246 10.7554 8.0727 10.7554 8.75146C10.7554 9.43022 11.3056 9.98046 11.9844 9.98046Z" fill="#007CC7"/>
<path d="M4.92089 13.4029C5.59965 13.4029 6.14989 12.8527 6.14989 12.1739C6.14989 11.4952 5.59965 10.9449 4.92089 10.9449C4.24214 10.9449 3.69189 11.4952 3.69189 12.1739C3.69189 12.8527 4.24214 13.4029 4.92089 13.4029Z" fill="#007CC7"/>
<path d="M8.45263 13.4029C9.13139 13.4029 9.68163 12.8527 9.68163 12.1739C9.68163 11.4952 9.13139 10.9449 8.45263 10.9449C7.77387 10.9449 7.22363 11.4952 7.22363 12.1739C7.22363 12.8527 7.77387 13.4029 8.45263 13.4029Z" fill="#007CC7"/>
<path d="M11.9844 13.4029C12.6631 13.4029 13.2134 12.8527 13.2134 12.1739C13.2134 11.4952 12.6631 10.9449 11.9844 10.9449C11.3056 10.9449 10.7554 11.4952 10.7554 12.1739C10.7554 12.8527 11.3056 13.4029 11.9844 13.4029Z" fill="#007CC7"/>
<path d="M4.92089 16.8254C5.59965 16.8254 6.14989 16.2752 6.14989 15.5964C6.14989 14.9177 5.59965 14.3674 4.92089 14.3674C4.24214 14.3674 3.69189 14.9177 3.69189 15.5964C3.69189 16.2752 4.24214 16.8254 4.92089 16.8254Z" fill="#007CC7"/>
<path d="M8.45263 16.8254C9.13139 16.8254 9.68163 16.2752 9.68163 15.5964C9.68163 14.9177 9.13139 14.3674 8.45263 14.3674C7.77387 14.3674 7.22363 14.9177 7.22363 15.5964C7.22363 16.2752 7.77387 16.8254 8.45263 16.8254Z" fill="#007CC7"/>
<path d="M11.9844 16.8254C12.6631 16.8254 13.2134 16.2752 13.2134 15.5964C13.2134 14.9177 12.6631 14.3674 11.9844 14.3674C11.3056 14.3674 10.7554 14.9177 10.7554 15.5964C10.7554 16.2752 11.3056 16.8254 11.9844 16.8254Z" fill="#007CC7"/>
<path d="M15.4331 9.98046C16.1119 9.98046 16.6621 9.43022 16.6621 8.75146C16.6621 8.0727 16.1119 7.52246 15.4331 7.52246C14.7543 7.52246 14.2041 8.0727 14.2041 8.75146C14.2041 9.43022 14.7543 9.98046 15.4331 9.98046Z" fill="#007CC7"/>
<path d="M15.4331 13.4029C16.1119 13.4029 16.6621 12.8527 16.6621 12.1739C16.6621 11.4952 16.1119 10.9449 15.4331 10.9449C14.7543 10.9449 14.2041 11.4952 14.2041 12.1739C14.2041 12.8527 14.7543 13.4029 15.4331 13.4029Z" fill="#007CC7"/>
<path d="M15.4331 16.8254C16.1119 16.8254 16.6621 16.2752 16.6621 15.5964C16.6621 14.9177 16.1119 14.3674 15.4331 14.3674C14.7543 14.3674 14.2041 14.9177 14.2041 15.5964C14.2041 16.2752 14.7543 16.8254 15.4331 16.8254Z" fill="#007CC7"/>
</svg>
